<?xml version="1.0" encoding="UTF-8" standalone="no"?>
<!-- Created with Inkscape (http://www.inkscape.org/) -->

<svg
   version="1.1"
   id="svg1"
   width="460"
   height="460"
   viewBox="0 0 460 460"
   sodipodi:docname="gravatar.svg"
   inkscape:export-filename="gravatar-black.png"
   inkscape:export-xdpi="96"
   inkscape:export-ydpi="96"
   inkscape:version="1.4.3 (0d15f75, 2025-12-25)"
   xmlns:inkscape="http://www.inkscape.org/namespaces/inkscape"
   xmlns:sodipodi="http://sodipodi.sourceforge.net/DTD/sodipodi-0.dtd"
   xmlns="http://www.w3.org/2000/svg"
   xmlns:svg="http://www.w3.org/2000/svg">
  <defs
     id="defs1" />
  <sodipodi:namedview
     id="namedview1"
     pagecolor="#ffffff"
     bordercolor="#000000"
     borderopacity="0.25"
     inkscape:showpageshadow="2"
     inkscape:pageopacity="0.0"
     inkscape:pagecheckerboard="0"
     inkscape:deskcolor="#d1d1d1"
     inkscape:zoom="1.1370226"
     inkscape:cx="328.48951"
     inkscape:cy="219.8725"
     inkscape:window-width="1689"
     inkscape:window-height="891"
     inkscape:window-x="0"
     inkscape:window-y="30"
     inkscape:window-maximized="0"
     inkscape:current-layer="g1" />
  <g
     inkscape:groupmode="layer"
     inkscape:label="Image"
     id="g1">
    <path
       style="fill:#000000;stroke:#000000;stroke-opacity:1;stroke-width:3;stroke-dasharray:none;fill-opacity:1"
       d="m 227.59911,445.59232 c -12.78215,-32.51027 -7.81607,-68.89769 -8.52449,-103.32396 -1.49234,-10.72182 3.68282,-19.79144 3.41344,-3.7243 1.44304,29.03668 -1.87223,58.55964 3.44613,87.22414 -0.79482,5.68727 13.18492,18.52034 1.66492,19.82412 z m -14.81208,-34.78974 c -48.31049,-2.51833 -96.4008,-13.08511 -141.495398,-30.54827 -9.063563,-12.73879 27.245536,7.88107 36.674008,8.04945 35.68739,10.46004 72.83902,17.42486 109.8381,19.43995 0.30713,2.53921 -2.99904,3.81215 -5.01671,3.05887 z m 12.11084,-4.05911 c 16.27521,-8.37796 35.97929,-10.80401 54,-15.44384 33.00143,-6.85773 65.30242,-17.75073 95.67325,-32.32221 13.96621,-5.38935 30.07226,-20.24844 42.69723,-20.11514 -15.84749,14.2637 -37.2182,21.41198 -55.9069,31.60701 -24.81588,9.25919 -49.72598,18.90448 -75.96358,23.78651 -20.11305,2.05394 -41.44457,13.69547 -60.5,12.48767 z m -50.40898,-83.21868 c -20.54158,-2.90933 -41.67266,-5.38533 -57.12167,-21.41217 -17.52682,-11.80784 -33.151458,-28.041 -37.197742,-49.59408 -7.649344,-22.8182 -16.873517,-48.29619 -8.174079,-72.06839 12.984519,-17.98601 27.2393,-35.3527 43.902471,-49.88664 15.36303,-16.57285 31.68838,-34.068396 52.74874,-43.119658 16.89102,-10.420241 36.48698,-14.886267 55.1713,-20.617825 19.90542,-2.695853 42.16502,-5.12804 61.08998,2.569109 27.79194,12.432623 52.06839,33.101354 66.87123,59.922304 13.34969,20.08067 22.7727,42.75301 27.13918,66.51966 5.36705,9.96954 -5.06722,32.9308 8.37261,34.77705 15.97923,6.58781 38.0467,3.55641 51.38444,11.78739 -18.79454,2.17024 -40.2209,-7.9529 -57.77743,-6.54597 -0.66786,22.6763 -17.45607,39.18608 -32.9827,53.3533 -17.24912,10.87104 -34.77102,24.15682 -56.24959,24.11141 -27.57826,4.19318 -54.97813,8.62643 -82.96604,9.18905 -11.39376,0.3951 -22.80734,1.65401 -34.2107,1.01546 z m 38.40898,-5.2971 c 23.15619,0.3868 46.43767,-4.33686 69,-6.91298 19.57891,-1.2927 37.46915,-8.51012 53.51305,-19.47231 16.69129,-12.46809 34.18358,-26.03367 39.88595,-47.11798 4.57229,-29.62542 -0.23116,-60.64257 -13.44741,-87.58048 -10.15566,-21.63993 -23.13122,-42.41284 -40.4762,-58.867213 -16.44764,-13.04944 -34.80436,-26.166241 -55.7171,-30.284261 -20.18964,-1.393151 -40.663,0.833861 -59.25829,8.81819 -19.4067,5.327161 -37.91281,14.125332 -54.45803,25.785414 -16.48193,13.42784 -30.89698,28.47293 -45.39293,43.96977 -12.793614,14.13145 -27.888392,28.04929 -34.060695,46.27785 -2.785957,24.79561 9.610786,47.53672 15.623788,70.88905 10.320687,21.05014 31.224217,34.32131 50.214427,46.69221 15.51501,11.45537 35.96895,3.9998 52.57344,9.1552 7.21152,-1.51105 14.67575,-1.1969 22,-1.35246 z m -8,-44.22853 c -21.89732,-7.1237 -45.00269,-14.86298 -62.26452,-30.64032 -8.1243,-11.47217 6.73051,-10.98441 6.61593,-0.27844 18.27579,13.82322 40.4901,22.17987 62.78717,27.91378 21.98202,2.50733 45.63098,-0.92825 65.68132,-10.28613 12.1375,-5.94639 19.57441,-24.43069 28.85281,-27.89414 -5.69322,18.17095 -23.18072,33.85572 -42.22849,37.55917 -18.94134,5.39792 -39.87524,5.08194 -59.44422,3.62608 z m -51.75277,-86.9549 c -21.40023,-10.84041 -8.82953,-38.93594 5.73897,-50.32153 9.43803,-12.79216 20.74084,-33.38933 38.43989,-20.81522 21.42079,2.5215 42.60209,28.3022 24.57391,47.74625 -11.11677,18.04503 -30.80185,28.20154 -51.96214,25.1356 -5.60506,-0.0588 -11.46412,0.39731 -16.79063,-1.7451 z m 35.75277,-3.49541 c 17.38104,-5.23702 32.22851,-21.29659 35.87216,-38.88263 -0.18163,-9.59391 -13.9583,-15.02278 -19.70964,-21.8008 -12.31212,-4.90527 -25.43945,-11.15475 -32.50347,4.03338 -9.9162,15.92677 -37.81256,33.19885 -21.46708,53.65915 11.0086,6.87523 25.61636,5.575 37.80803,2.9909 z m -7.31291,-17.12915 c -12.38509,-16.80054 10.81186,-31.68818 22.59117,-19.73492 12.19748,17.08465 -8.37522,28.87019 -22.59117,19.73492 z m 8.19691,-9.94528 c -2.55644,-7.37774 -2.11222,12.01369 0,0 z m 73.27002,30.55058 c -20.37046,-11.27447 -5.94017,-35.69537 -0.78063,-51.65258 8.86612,-14.83757 31.82508,-10.45884 43.20397,-0.495 14.53592,11.90047 18.29168,38.9188 -3.56328,44.79387 -10.64676,9.1351 -25.72398,11.26287 -38.86006,7.35371 z m 19.2648,-2.66923 c 14.46399,-5.72966 40.23642,-15.96265 27.99368,-35.72296 -7.30123,-18.46983 -43.00612,-28.03999 -46.73438,-2.62576 -12.8047,17.51969 -7.5859,45.30998 18.7407,38.34872 z m -6.16882,-11.46721 c -2.21325,-4.91044 -6.73006,-23.03036 4.20469,-19.66414 11.64564,-3.65353 7.8494,15.91877 5.84996,20.54018 -3.36367,0.11433 -6.845,0.38664 -10.05465,-0.87604 z M 21.261277,205.72905 c 7.919387,-3.05309 37.411741,-12.1292 41.57804,-5.04081 -13.658784,1.03154 -28.271104,8.1719 -41.57804,5.04081 z M 372.53079,167.54089 c 16.52652,-4.63502 36.25573,-21.02474 52.36708,-17.31647 -16.12574,6.00153 -34.46271,17.50412 -52.47311,18.26866 z M 69.844717,159.50983 c -4.660572,-11.40936 -26.470607,-27.58879 -21.19927,-36.76439 9.32879,11.63337 18.63073,23.91905 26.41082,36.94273 0.747785,4.07172 -4.48055,1.49449 -5.21155,-0.17834 z m 30.644903,-33.03541 c -9.713143,-18.17797 -27.310687,-31.618007 -37.591753,-49.25 12.659132,1.90007 24.93562,27.39541 36.703192,38.82495 2.517071,2.70455 11.461471,17.19153 0.888561,10.42505 z m 242.40825,-13.71708 c 15.24635,-1.64678 38.60722,-4.50126 50.33734,0.67433 -16.52307,0.89522 -34.24446,2.02635 -50.33734,-0.67433 z m -203.25,-18.92497 C 130.12324,77.331194 111.44305,61.248011 107.4832,44.22442 c 13.09653,9.182067 19.36698,27.043421 30.41467,39.201318 1.51111,2.413327 11.47191,15.427225 1.75,10.406632 z m 160.25,-20.387191 c 11.00109,-14.07175 30.1921,-24.907758 47.83282,-28.836369 11.70479,-2.383788 17.06912,2.725997 1.9693,3.131914 -18.58723,3.721164 -35.06941,19.429115 -49.48458,27.571019 z m -105,-4.153371 C 179.30045,58.028397 166.14383,41.795042 147.38404,35.832205 c 12.80318,-8.487176 31.19006,16.398213 43.21965,24.002935 2.24641,5.73664 26.34812,11.572284 4.29418,9.456668 z m 29.02218,-5.540663 c -1.66196,-14.455342 0.002,-44.73033 17.42761,-44.512327 -13.7668,9.646623 -12.73907,30.415354 -16.09794,45.515699 z"
       id="path1" />
  </g>
</svg>
